<?xml version="1.0" encoding="UTF-8" standalone="no"?>
<!-- Generator: Adobe Illustrator 14.0.0, SVG Export Plug-In . SVG Version: 6.00 Build 43363)  -->

<svg
   xmlns:dc="http://purl.org/dc/elements/1.1/"
   xmlns:cc="http://creativecommons.org/ns#"
   xmlns:rdf="http://www.w3.org/1999/02/22-rdf-syntax-ns#"
   xmlns:svg="http://www.w3.org/2000/svg"
   xmlns="http://www.w3.org/2000/svg"
   xmlns:sodipodi="http://sodipodi.sourceforge.net/DTD/sodipodi-0.dtd"
   xmlns:inkscape="http://www.inkscape.org/namespaces/inkscape"
   version="1.1"
   id="Ebene_1"
   x="0px"
   y="0px"
   width="32"
   height="32"
   viewBox="0 0 32.000001 31.999998"
   enable-background="new 0 0 50 50"
   xml:space="preserve"
   inkscape:version="0.48.2 r9819"
   sodipodi:docname="brauanlage.svg"><metadata
   id="metadata3500"><rdf:RDF><cc:Work
       rdf:about=""><dc:format>image/svg+xml</dc:format><dc:type
         rdf:resource="http://purl.org/dc/dcmitype/StillImage" /><dc:title></dc:title></cc:Work></rdf:RDF></metadata><defs
   id="defs3498"><inkscape:path-effect
   effect="spiro"
   id="path-effect3794"
   is_visible="true" />
	
	

		
		
		
		
	</defs><sodipodi:namedview
   pagecolor="#ffffff"
   bordercolor="#666666"
   borderopacity="1"
   objecttolerance="10"
   gridtolerance="10"
   guidetolerance="10"
   inkscape:pageopacity="0"
   inkscape:pageshadow="2"
   inkscape:window-width="1258"
   inkscape:window-height="971"
   id="namedview3496"
   showgrid="false"
   inkscape:zoom="22.627417"
   inkscape:cx="15.57056"
   inkscape:cy="14.664823"
   inkscape:window-x="1576"
   inkscape:window-y="20"
   inkscape:window-maximized="0"
   inkscape:current-layer="g3373"
   units="px"
   inkscape:document-units="mm" />
<g
   id="g3239"
   transform="matrix(1.7953977,0,0,1.7953977,-0.5927088,-57.177178)"><g
     transform="matrix(1.500001,0,0,1.499923,-4.7787061,-22.075097)"
     id="g4363"><g
       id="g3373"><path
         style="fill:#aa4400;stroke:#000000;stroke-width:0.21259841;stroke-miterlimit:4;stroke-dasharray:none"
         d="m 13.4375,3.78125 0,7.21875 c -0.09979,3.555219 0.502331,6.791635 -2.71875,7.71875 l 0,0.03125 C 5.2819057,20.228787 1,19.554436 1,28 l 0,0.03125 21.84375,0 c -0.131719,-5.691344 -1.322124,-6.951348 -3,-7.78125 -0.592929,-0.293085 -1.242648,-0.548648 -1.9375,-0.9375 -1.639043,-0.97309 -1.323258,-4.334883 -1.375,-8.0625 l 0,-7.46875 z m 4.0625,1.125 0,6.34375 c 0.07576,3.725705 -0.366781,7.089413 2.25,8.0625 0.111333,0.0624 0.251503,0.118791 0.34375,0.15625 6.566259,3.385838 7.239366,3.521677 7.5,8.5625 L 31,28.03125 31,28 c 0,-8.455146 -4.274512,-7.802463 -9.71875,-9.28125 -3.206303,-0.930948 -2.618952,-4.142006 -2.71875,-7.695313 l 0,-0.02344 0,-6.09375 z"
         transform="matrix(0.37131954,0,0,0.37133885,3.4058863,35.949593)"
         id="path3481-8"
         inkscape:connector-curvature="0"
         sodipodi:nodetypes="ccccscccccccccccccsccccc" /></g></g></g>
</svg>