<?xml version="1.0" encoding="UTF-8" standalone="no"?>
<svg
   xmlns:dc="http://purl.org/dc/elements/1.1/"
   xmlns:cc="http://creativecommons.org/ns#"
   xmlns:rdf="http://www.w3.org/1999/02/22-rdf-syntax-ns#"
   xmlns:svg="http://www.w3.org/2000/svg"
   xmlns="http://www.w3.org/2000/svg"
   id="svg2"
   height="208px"
   width="208px"
   version="1.1"
   viewBox="0 0 26 26">
  <metadata
     id="metadata11">
    <rdf:RDF>
      <cc:Work
         rdf:about="">
        <dc:format>image/svg+xml</dc:format>
        <dc:type
           rdf:resource="http://purl.org/dc/dcmitype/StillImage" />
        <dc:title></dc:title>
      </cc:Work>
    </rdf:RDF>
  </metadata>
  <defs
     id="defs9" />
  <g
     id="surface1">
    <ellipse
       ry="8.6758471"
       rx="9.1716099"
       cy="13.192798"
       cx="12.862288"
       id="path4139"
       style="fill:#ffffff;stroke:#ffffff;stroke-width:0.00442913;stroke-miterlimit:4;stroke-dasharray:none;stroke-opacity:1" />
    <path
       id="path5"
       d="M 13 0.1875 C 5.925781 0.1875 0.1875 5.925781 0.1875 13 C 0.1875 20.074219 5.925781 25.8125 13 25.8125 C 20.074219 25.8125 25.8125 20.074219 25.8125 13 C 25.8125 5.925781 20.074219 0.1875 13 0.1875 Z M 18.78125 17.394531 L 17.390625 18.78125 C 17.136719 19.035156 16.722656 19.035156 16.46875 18.78125 L 13 15.3125 L 9.53125 18.78125 C 9.277344 19.035156 8.863281 19.035156 8.609375 18.777344 L 7.21875 17.394531 C 6.96875 17.136719 6.96875 16.726563 7.21875 16.46875 L 10.6875 13 L 7.222656 9.535156 C 6.96875 9.277344 6.96875 8.863281 7.222656 8.609375 L 8.609375 7.222656 C 8.863281 6.964844 9.28125 6.964844 9.535156 7.222656 L 13 10.6875 L 16.46875 7.222656 C 16.722656 6.964844 17.140625 6.964844 17.390625 7.222656 L 18.78125 8.605469 C 19.035156 8.863281 19.035156 9.277344 18.78125 9.535156 L 15.3125 13 L 18.78125 16.46875 C 19.03125 16.726563 19.03125 17.136719 18.78125 17.394531 Z "
       style=" " />
  </g>
</svg>
