<?xml version="1.0" encoding="UTF-8" standalone="no"?>
<!-- Created with Inkscape (http://www.inkscape.org/) -->
<svg xmlns:dc="http://purl.org/dc/elements/1.1/" xmlns:cc="http://creativecommons.org/ns#" xmlns:rdf="http://www.w3.org/1999/02/22-rdf-syntax-ns#" xmlns:svg="http://www.w3.org/2000/svg" xmlns="http://www.w3.org/2000/svg" xmlns:xlink="http://www.w3.org/1999/xlink" xmlns:sodipodi="http://sodipodi.sourceforge.net/DTD/sodipodi-0.dtd" xmlns:inkscape="http://www.inkscape.org/namespaces/inkscape" width="697" height="697" id="svg2985" version="1.1" inkscape:version="0.47pre4 r22446" sodipodi:docname="info.svg">
  <defs id="defs2987">
    <inkscape:perspective sodipodi:type="inkscape:persp3d" inkscape:vp_x="0 : 526.18109 : 1" inkscape:vp_y="0 : 1000 : 0" inkscape:vp_z="744.09448 : 526.18109 : 1" inkscape:persp3d-origin="372.04724 : 350.78739 : 1" id="perspective2993"/>
    <inkscape:perspective id="perspective2935" inkscape:persp3d-origin="0.5 : 0.33333333 : 1" inkscape:vp_z="1 : 0.5 : 1" inkscape:vp_y="0 : 1000 : 0" inkscape:vp_x="0 : 0.5 : 1" sodipodi:type="inkscape:persp3d"/>
    <linearGradient id="linearGradient3138">
      <stop style="stop-color:#ff0000;stop-opacity:1;" offset="0" id="stop3140"/>
      <stop style="stop-color:#a50000;stop-opacity:1;" offset="1" id="stop3142"/>
    </linearGradient>
    <linearGradient id="linearGradient3477">
      <stop id="stop3479" offset="0" style="stop-color:#ffffff;stop-opacity:1;"/>
      <stop style="stop-color:#ff0e0e;stop-opacity:1;" offset="0.48459959" id="stop3483"/>
      <stop id="stop3481" offset="1" style="stop-color:#850000;stop-opacity:1;"/>
    </linearGradient>
    <linearGradient id="linearGradient2951">
      <stop id="stop2953" offset="0" style="stop-color:#ffffff;stop-opacity:1;"/>
      <stop style="stop-color:#ff0e0e;stop-opacity:1;" offset="0.48459959" id="stop2955"/>
      <stop id="stop2957" offset="1" style="stop-color:#850000;stop-opacity:1;"/>
    </linearGradient>
    <radialGradient inkscape:collect="always" xlink:href="#linearGradient3501" id="radialGradient3515" cx="500.23108" cy="869.05786" fx="500.23108" fy="869.05786" r="217.18457" gradientTransform="matrix(2.1042365,-1.4029049,0.4618263,0.6926998,-953.72724,918.91004)" gradientUnits="userSpaceOnUse"/>
    <linearGradient inkscape:collect="always" id="linearGradient3501">
      <stop style="stop-color:#000000;stop-opacity:1;" offset="0" id="stop3503"/>
      <stop style="stop-color:#000000;stop-opacity:0;" offset="1" id="stop3505"/>
    </linearGradient>
    <inkscape:perspective id="perspective3113" inkscape:persp3d-origin="0.5 : 0.33333333 : 1" inkscape:vp_z="1 : 0.5 : 1" inkscape:vp_y="0 : 1000 : 0" inkscape:vp_x="0 : 0.5 : 1" sodipodi:type="inkscape:persp3d"/>
    <filter color-interpolation-filters="sRGB" inkscape:collect="always" x="-0.10675863" width="1.2135173" y="-0.10675863" height="1.2135173" id="filter3462-3">
      <feGaussianBlur inkscape:collect="always" stdDeviation="25.545813" id="feGaussianBlur3464-2"/>
    </filter>
    <radialGradient inkscape:collect="always" xlink:href="#linearGradient7802" id="radialGradient7822" gradientUnits="userSpaceOnUse" gradientTransform="matrix(1.7191544,-0.2785441,0.2384726,1.4718364,-502.6485,-249.53315)" cx="317.33771" cy="633.9411" fx="317.33771" fy="633.9411" r="287.14285"/>
    <linearGradient id="linearGradient7802">
      <stop id="stop7804" offset="0" style="stop-color:#0088ff;stop-opacity:1;"/>
      <stop id="stop7806" offset="1" style="stop-color:#1e2862;stop-opacity:1;"/>
    </linearGradient>
    <radialGradient inkscape:collect="always" xlink:href="#linearGradient7802" id="radialGradient7820" gradientUnits="userSpaceOnUse" cx="272.21576" cy="332.60129" fx="272.21576" fy="332.60129" r="287.14285"/>
    <linearGradient id="linearGradient3124">
      <stop id="stop3126" offset="0" style="stop-color:#0088ff;stop-opacity:1;"/>
      <stop id="stop3128" offset="1" style="stop-color:#1e2862;stop-opacity:1;"/>
    </linearGradient>
    <radialGradient inkscape:collect="always" xlink:href="#linearGradient7802" id="radialGradient7818" gradientUnits="userSpaceOnUse" cx="596.62854" cy="788.80029" fx="596.62854" fy="788.80029" r="289.32062"/>
    <linearGradient id="linearGradient3131">
      <stop id="stop3133" offset="0" style="stop-color:#0088ff;stop-opacity:1;"/>
      <stop id="stop3135" offset="1" style="stop-color:#1e2862;stop-opacity:1;"/>
    </linearGradient>
    <linearGradient inkscape:collect="always" xlink:href="#linearGradient7802" id="linearGradient7874" x1="387.20773" y1="319.42313" x2="234.76697" y2="296.67078" gradientUnits="userSpaceOnUse"/>
    <linearGradient id="linearGradient3138-2">
      <stop id="stop3140-9" offset="0" style="stop-color:#0088ff;stop-opacity:1;"/>
      <stop id="stop3142-5" offset="1" style="stop-color:#1e2862;stop-opacity:1;"/>
    </linearGradient>
    <linearGradient inkscape:collect="always" xlink:href="#linearGradient3261" id="linearGradient7834" x1="316.81265" y1="171.6824" x2="316.81265" y2="526.84729" gradientUnits="userSpaceOnUse"/>
    <linearGradient id="linearGradient3261" inkscape:collect="always">
      <stop id="stop3263" offset="0" style="stop-color:#eeeeee;stop-opacity:1"/>
      <stop id="stop3265" offset="1" style="stop-color:#aec6d7;stop-opacity:1"/>
    </linearGradient>
    <linearGradient inkscape:collect="always" xlink:href="#linearGradient3276-3" id="linearGradient7842" x1="316.81265" y1="171.6824" x2="316.81265" y2="526.84729" gradientUnits="userSpaceOnUse"/>
    <linearGradient inkscape:collect="always" id="linearGradient3276-3">
      <stop style="stop-color:#eeeeee;stop-opacity:1" offset="0" id="stop3278-2"/>
      <stop style="stop-color:#aec6d7;stop-opacity:1" offset="1" id="stop3280-9"/>
    </linearGradient>
    <linearGradient inkscape:collect="always" xlink:href="#linearGradient3261" id="linearGradient3152" x1="316.81265" y1="171.6824" x2="316.81265" y2="526.84729" gradientUnits="userSpaceOnUse"/>
    <linearGradient inkscape:collect="always" xlink:href="#linearGradient3276-3" id="linearGradient3160" x1="316.81265" y1="171.6824" x2="316.81265" y2="526.84729" gradientUnits="userSpaceOnUse"/>
    <radialGradient inkscape:collect="always" xlink:href="#linearGradient3319-4" id="radialGradient3329-5" cx="359.85861" cy="603.30267" fx="359.85861" fy="603.30267" r="287.14285" gradientTransform="matrix(1.9873891,-0.3207875,0.1908378,1.1823065,-486.21291,-22.47592)" gradientUnits="userSpaceOnUse"/>
    <linearGradient inkscape:collect="always" id="linearGradient3319-4">
      <stop style="stop-color:#ffffff;stop-opacity:1;" offset="0" id="stop3321-2"/>
      <stop style="stop-color:#ffffff;stop-opacity:0;" offset="1" id="stop3323-5"/>
    </linearGradient>
    <filter color-interpolation-filters="sRGB" inkscape:collect="always" id="filter3493-3">
      <feGaussianBlur inkscape:collect="always" stdDeviation="7.2323951" id="feGaussianBlur3495-0"/>
    </filter>
    <radialGradient inkscape:collect="always" xlink:href="#linearGradient3501-2" id="radialGradient3515-6" cx="500.23108" cy="869.05786" fx="500.23108" fy="869.05786" r="217.18457" gradientTransform="matrix(2.1042365,-1.4029049,0.4618263,0.6926998,-953.72724,918.91004)" gradientUnits="userSpaceOnUse"/>
    <linearGradient inkscape:collect="always" id="linearGradient3501-2">
      <stop style="stop-color:#000000;stop-opacity:1;" offset="0" id="stop3503-2"/>
      <stop style="stop-color:#000000;stop-opacity:0;" offset="1" id="stop3505-2"/>
    </linearGradient>
    <filter color-interpolation-filters="sRGB" inkscape:collect="always" x="-0.078253493" width="1.156507" y="-0.11951928" height="1.2390386" id="filter3569-5">
      <feGaussianBlur inkscape:collect="always" stdDeviation="14.162876" id="feGaussianBlur3571-7"/>
    </filter>
    <linearGradient inkscape:collect="always" xlink:href="#linearGradient3261" id="linearGradient3336" gradientUnits="userSpaceOnUse" x1="316.81265" y1="171.6824" x2="316.81265" y2="526.84729"/>
    <linearGradient inkscape:collect="always" xlink:href="#linearGradient3276-3" id="linearGradient3338" gradientUnits="userSpaceOnUse" x1="316.81265" y1="171.6824" x2="316.81265" y2="526.84729"/>
    <linearGradient inkscape:collect="always" xlink:href="#linearGradient3261" id="linearGradient3340" gradientUnits="userSpaceOnUse" x1="316.81265" y1="171.6824" x2="316.81265" y2="526.84729"/>
    <linearGradient inkscape:collect="always" xlink:href="#linearGradient3276-3" id="linearGradient3342" gradientUnits="userSpaceOnUse" x1="316.81265" y1="171.6824" x2="316.81265" y2="526.84729"/>
    <linearGradient inkscape:collect="always" xlink:href="#linearGradient3261" id="linearGradient3345" gradientUnits="userSpaceOnUse" x1="316.81265" y1="171.6824" x2="316.81265" y2="526.84729" gradientTransform="scale(1.0269754,0.9737332)"/>
    <linearGradient inkscape:collect="always" xlink:href="#linearGradient3276-3" id="linearGradient3347" gradientUnits="userSpaceOnUse" x1="316.81265" y1="171.6824" x2="316.81265" y2="526.84729" gradientTransform="scale(1.0269754,0.9737332)"/>
  </defs>
  <sodipodi:namedview id="base" pagecolor="#ffffff" bordercolor="#666666" borderopacity="1.0" inkscape:pageopacity="0.0" inkscape:pageshadow="2" inkscape:zoom="0.76400611" inkscape:cx="112.11753" inkscape:cy="359.43231" inkscape:document-units="px" inkscape:current-layer="g7925" showgrid="false" inkscape:window-width="1680" inkscape:window-height="976" inkscape:window-x="0" inkscape:window-y="25" inkscape:window-maximized="1"/>
  <g inkscape:label="Layer 1" inkscape:groupmode="layer" id="layer1" transform="translate(-540.11863,-329.52924)">
    <g transform="translate(547.16326,338.65368)" style="display:inline" id="g7925">
      <rect y="0" x="0" height="670" width="670" id="rect7888" style="opacity:0;fill:#eeeeee;fill-opacity:1;fill-rule:evenodd;stroke:none;stroke-width:40;marker:none;visibility:visible;display:inline;overflow:visible;enable-background:accumulate"/>
      <path transform="translate(-71.448979,-240.08231)" d="m 700,579.50507 c 0,158.58461 -128.55823,287.14285 -287.14285,287.14285 -158.58462,0 -287.14286,-128.55824 -287.14286,-287.14285 0,-158.58462 128.55824,-287.14286 287.14286,-287.14286 C 571.44177,292.36221 700,420.92045 700,579.50507 z" sodipodi:ry="287.14285" sodipodi:rx="287.14285" sodipodi:cy="579.50507" sodipodi:cx="412.85715" id="path7884" style="fill:#000000;fill-opacity:1;fill-rule:nonzero;stroke:none;display:inline;filter:url(#filter3462-3)" sodipodi:type="arc"/>
      <path transform="translate(-82.448979,-258.08231)" d="m 700,579.50507 c 0,158.58461 -128.55823,287.14285 -287.14285,287.14285 -158.58462,0 -287.14286,-128.55824 -287.14286,-287.14285 0,-158.58462 128.55824,-287.14286 287.14286,-287.14286 C 571.44177,292.36221 700,420.92045 700,579.50507 z" sodipodi:ry="287.14285" sodipodi:rx="287.14285" sodipodi:cy="579.50507" sodipodi:cx="412.85715" id="path7814" style="fill:url(#radialGradient7822);fill-opacity:1;fill-rule:nonzero;stroke:url(#radialGradient7820);stroke-width:5;stroke-linecap:round;stroke-linejoin:round;stroke-miterlimit:4;stroke-opacity:1;stroke-dasharray:none;display:inline" sodipodi:type="arc"/>
      <path sodipodi:type="arc" style="fill:none;stroke:url(#radialGradient7818);stroke-width:5.44444466;stroke-linecap:round;stroke-linejoin:round;stroke-miterlimit:4;stroke-opacity:1;stroke-dasharray:none;display:inline" id="path7816" sodipodi:cx="412.85715" sodipodi:cy="579.50507" sodipodi:rx="287.14285" sodipodi:ry="287.14285" d="m 700,579.50507 c 0,158.58461 -128.55823,287.14285 -287.14285,287.14285 -158.58462,0 -287.14286,-128.55824 -287.14286,-287.14285 0,-158.58462 128.55824,-287.14286 287.14286,-287.14286 C 571.44177,292.36221 700,420.92045 700,579.50507 z" transform="matrix(0.9183673,0,0,0.9183673,-48.746355,-210.77577)"/>
      <path id="text7844" d="m 369.96875,120.3125 c -29.19219,0.46811 -53.40122,33.94409 -41.96875,61.46875 9.66144,18.62567 37.37166,19.12001 51.5,5.53125 17.19077,-12.27338 25.88806,-39.22776 12.1875,-57.21875 -5.33622,-6.17795 -13.43777,-10.19195 -21.71875,-9.78125 z m -18.4375,120.78125 c -36.54656,6.46768 -65.7007,31.37671 -96.28125,50.53125 -9.80334,9.03499 -2.46823,29.89273 11.75,27.65625 10.21904,-2.64553 17.3758,-11.42009 26.875,-15.75 3.9747,-2.24713 8.27185,-3.99783 12.78125,-4.78125 0.80328,11.35562 -5.08378,21.81356 -6.75,32.90625 -13.33083,50.12118 -32.17621,98.92605 -40.96875,150.15625 -1.59095,14.9832 5.84528,33.18952 22.09375,36.09375 20.1331,3.83286 37.75185,-9.94871 53.87402,-19.89848 15.89267,-10.4287 32.72932,-20.32518 45.71973,-34.35152 6.54576,-11.37893 -7.99786,-28.81741 -20.125,-20.96875 -11.71688,7.26679 -22.57056,17.71384 -36.4375,20.5 5.64938,-35.27332 17.23086,-69.37013 26.625,-103.8125 8.24403,-29.22355 18.24968,-58.28509 22.03125,-88.5 1.74501,-13.54437 -5.52389,-30.0942 -21.1875,-29.78125 z" style="font-size:539.38519287px;font-style:italic;font-variant:normal;font-weight:normal;font-stretch:normal;text-indent:0;text-align:start;text-decoration:none;line-height:100%;letter-spacing:normal;word-spacing:normal;text-transform:none;direction:ltr;block-progression:tb;writing-mode:lr-tb;text-anchor:start;fill:#003366;fill-opacity:1;fill-rule:evenodd;stroke:url(#linearGradient7874);stroke-width:32;stroke-linecap:round;stroke-linejoin:round;stroke-miterlimit:4;stroke-opacity:1;stroke-dasharray:none;stroke-dashoffset:0;marker:none;visibility:visible;display:inline;overflow:visible;enable-background:accumulate;font-family:Palatino;-inkscape-font-specification:Palatino Italic"/>
      <path id="path3334" style="font-size:539.38519287px;font-style:italic;font-variant:normal;font-weight:normal;font-stretch:normal;text-indent:0;text-align:start;text-decoration:none;line-height:100%;letter-spacing:normal;word-spacing:normal;text-transform:none;direction:ltr;block-progression:tb;writing-mode:lr-tb;text-anchor:start;fill:url(#linearGradient3345);fill-opacity:1;fill-rule:evenodd;stroke:url(#linearGradient3347);stroke-width:32;stroke-linecap:round;stroke-linejoin:round;stroke-miterlimit:4;stroke-opacity:1;stroke-dashoffset:0;marker:none;visibility:visible;font-family:Palatino;-inkscape-font-specification:Palatino Italic" d="m 275.32071,451.68735 8.92572,-30.51799 24.8838,-85.14265 c 5.40946,-17.43867 8.02406,-29.83392 7.84382,-37.18579 -0.18039,-7.52243 -3.15563,-11.28375 -8.92571,-11.28397 -2.88515,2.2e-4 -8.02419,1.88088 -15.41715,5.64198 -7.21275,3.76154 -16.76957,9.489 -28.67049,17.1824 l -4.05713,-10.00169 c 22.71996,-15.72894 42.01391,-27.86775 57.88191,-36.41643 15.86785,-8.54821 26.95736,-12.82243 33.26857,-12.82269 6.85195,2.6e-4 10.72877,4.10351 11.63049,12.30978 1.08177,8.20675 -0.81156,20.51652 -5.68001,36.92934 l -21.63809,75.65385 -15.68763,56.93274 c -4.14738,15.55824 -6.13087,26.41477 -5.95048,32.56962 0.18025,5.98396 2.61454,8.97592 7.30287,8.97589 3.96689,3e-5 9.82721,-2.0516 17.58095,-6.15489 7.93386,-4.10323 17.76115,-10.34359 29.48191,-18.72113 l 4.86857,9.48879 c -20.91694,15.90016 -38.67819,28.20993 -53.28382,36.92934 -14.42546,8.54845 -24.61339,12.82268 -30.56381,12.82268 -10.27814,0 -16.6794,-4.78713 -19.20382,-14.3614 l -1.0819,-9.23234 c -2e-5,-8.54843 2.16378,-19.7469 6.49143,-33.59544 m 94.66668,-321.33654 c 7.03224,3.7e-4 12.26145,2.82136 15.68762,8.46297 3.42589,5.47138 4.057,12.05368 1.89334,19.74694 -2.34428,7.69395 -6.85221,14.36174 -13.52381,20.00339 -6.67188,5.47134 -13.52393,8.20684 -20.5562,8.20653 -7.03249,3.1e-4 -12.26169,-2.73519 -15.68762,-8.20653 -3.42613,-5.64165 -3.96707,-12.30944 -1.62286,-20.00339 2.16371,-7.69326 6.58149,-14.27556 13.25333,-19.74694 6.67164,-5.64161 13.5237,-8.4626 20.5562,-8.46297"/>
      <g id="g7880">
        <path transform="translate(-82.448979,-258.08231)" style="opacity:0.4953271;fill:url(#radialGradient3329-5);fill-opacity:1;fill-rule:nonzero;stroke:none;display:inline;filter:url(#filter3493-3)" d="m 673.36583,582.75514 c -165.91024,17.72728 -216.68927,-24.73248 -349.58156,51.05313 -61.6012,35.12984 -119.16014,47.24906 -151.32925,49.46288 -13.73714,-37.15171 -21.59419,-20.54669 -33.98572,-14.71528 -8.60497,-18.60264 -12.75501,-47.49739 -12.75501,-89.0508 0,-158.50286 128.64,-287.14286 287.14286,-287.14286 105.09616,0 197.06334,56.55559 247.1073,140.87253 21.81411,36.75367 35.66248,78.78221 39.16024,123.70076 -9.41523,-2.05786 -27.06894,-8.70037 -25.75886,25.81964 z" id="path7876" sodipodi:nodetypes="ccccssscc"/>
        <path transform="translate(-82.448979,-258.08231)" style="opacity:0.18719213;fill:url(#radialGradient3515-6);fill-opacity:1;fill-rule:nonzero;stroke:none;display:inline;filter:url(#filter3569-5)" d="m 699.61256,594.53936 c -7.82807,151.52363 -133.29528,272.10856 -286.75541,272.10856 -53.96583,0 -104.46993,-14.91213 -147.61373,-40.83785 16.63844,5.88042 34.7881,-6.03239 7.75229,-25.66841 45.46618,-6.9287 133.35311,-20.69277 204.306,-70.56879 111.53772,-78.40496 132.92356,-138.92457 196.81208,-147.32177 -2.25654,44.2893 23.87912,15.50501 25.49877,12.28826 z" id="path7878" sodipodi:nodetypes="cscczcc"/>
      </g>
    </g>
  </g>
  <metadata>
    <rdf:RDF>
      <cc:Work>
        <dc:format>image/svg+xml</dc:format>
        <dc:type rdf:resource="http://purl.org/dc/dcmitype/StillImage"/>
        <cc:license rdf:resource="http://creativecommons.org/licenses/publicdomain/"/>
        <dc:publisher>
          <cc:Agent rdf:about="http://openclipart.org/">
            <dc:title>Open Clip Art Library</dc:title>
          </cc:Agent>
        </dc:publisher>
        <dc:title>Info sign</dc:title>
        <dc:date>2010-03-24T10:19:18</dc:date>
        <dc:description>Info sign, blue</dc:description>
        <dc:source>http://openclipart.org/detail/33733/info-sign-by-ernes</dc:source>
        <dc:creator>
          <cc:Agent>
            <dc:title>ernes</dc:title>
          </cc:Agent>
        </dc:creator>
        <dc:subject>
          <rdf:Bag>
            <rdf:li>clip art</rdf:li>
            <rdf:li>clipart</rdf:li>
            <rdf:li>icon</rdf:li>
            <rdf:li>info</rdf:li>
            <rdf:li>information</rdf:li>
            <rdf:li>sign</rdf:li>
          </rdf:Bag>
        </dc:subject>
      </cc:Work>
      <cc:License rdf:about="http://creativecommons.org/licenses/publicdomain/">
        <cc:permits rdf:resource="http://creativecommons.org/ns#Reproduction"/>
        <cc:permits rdf:resource="http://creativecommons.org/ns#Distribution"/>
        <cc:permits rdf:resource="http://creativecommons.org/ns#DerivativeWorks"/>
      </cc:License>
    </rdf:RDF>
  </metadata>
</svg>
